<mxfile host="app.diagrams.net" modified="2024-07-07T12:15:40.197Z" agent="Mozilla/5.0 (iPhone; CPU iPhone OS 17_5_1 like Mac OS X) AppleWebKit/605.1.15 (KHTML, like Gecko) Version/17.5 Mobile/15E148 Safari/604.1" version="24.6.4" etag="aLh_-eW61RN5DYFU1Uia" type="github">
  <diagram name="Trang-1" id="Pa23yqLlrRZusOlaVaJm">
    <mxGraphModel>
      <root>
        <mxCell id="0" />
        <mxCell id="1" parent="0" />
      </root>
    </mxGraphModel>
  </diagram>
</mxfile>
